#!OML:ASF E:\motion texture\Top Level 1\Subject 1\Session 1\male.ASF
:FULLY-SPECIFIED
:DEGREES
531
root -24.4761 17.9294 3.85333 74.1734 -79.9001 -67.9166
lowerback -2.80062 1.14716 7.04817
upperback -0.274543 1.21358 2.55112
thorax 1.3835 0.61301 -1.26885
lowerneck -17.7678 -2.31433 -5.51739
upperneck 6.60059 -2.31234 4.06874
head 4.95354 -1.01083 1.95036
rclavicle -6.27414e-015 5.34731e-014
rhumerus -31.5731 7.23707 -62.549
rradius 103.898
rwrist 11.8413
rhand -26.0102 -30.3499
rfingers 7.12502
rthumb 0.535928 -60.329
lclavicle -6.27414e-015 5.34731e-014
lhumerus -35.7235 -1.00263 91.7523
lradius 50.3389
lwrist -16.2363
lhand -12.8274 17.8826
lfingers 7.12502
lthumb 13.2596 47.4409
rfemur -4.53186 8.66249 35.1544
rtibia 17.5741
rfoot -12.9504 -12.5094
rtoes 11.1666
lfemur -34.2648 3.27459 -6.26269
ltibia 46.3662
lfoot -7.42861 2.99471
ltoes -15.0382
532
root -24.6349 17.9086 3.83388 73.6167 -79.8126 -67.2943
lowerback -2.85858 1.29432 7.06534
upperback -0.22489 1.40467 2.44737
thorax 1.48448 0.713712 -1.37468
lowerneck -17.6743 -2.3682 -5.66159
upperneck 6.35421 -2.34589 4.00336
head 4.86364 -1.03678 1.9499
rclavicle 1.69215e-014 -2.36554e-014
rhumerus -32.2352 8.11054 -65.8349
rradius 102.211
rwrist 12.5391
rhand -25.9909 -30.3492
rfingers 7.12502
rthumb 0.554499 -60.3282
lclavicle 1.69215e-014 -2.36554e-014
lhumerus -35.5619 -1.27925 92.0509
lradius 50.7295
lwrist -16.2083
lhand -12.8394 17.9043
lfingers 7.12502
lthumb 13.248 47.4633
rfemur -3.9283 8.59536 35.4036
rtibia 17.4211
rfoot -13.3587 -12.6254
rtoes 10.8557
lfemur -34.8465 3.20739 -6.2426
ltibia 44.7576
lfoot -7.57145 2.99333
ltoes -14.9632
533
root -24.7941 17.8856 3.8152 73.106 -79.7274 -66.7149
lowerback -2.91277 1.44543 7.08456
upperback -0.174519 1.6012 2.34591
thorax 1.58534 0.817146 -1.47843
lowerneck -17.5872 -2.42648 -5.81087
upperneck 6.10496 -2.38593 3.94815
head 4.7745 -1.06499 1.95296
rclavicle -3.25137e-014 -2.44505e-014
rhumerus -32.7435 8.84493 -68.9801
rradius 100.306
rwrist 13.1276
rhand -25.9187 -30.345
rfingers 7.12502
rthumb 0.624284 -60.3238
lclavicle -3.25137e-014 -2.44505e-014
lhumerus -35.3904 -1.55736 92.3533
lradius 51.0864
lwrist -16.2024
lhand -12.8522 17.9274
lfingers 7.12502
lthumb 13.2357 47.4871
rfemur -3.35229 8.51718 35.6454
rtibia 17.315
rfoot -13.7797 -12.7233
rtoes 10.5161
lfemur -35.3944 3.12099 -6.22018
ltibia 43.1456
lfoot -7.68639 2.96311
ltoes -14.9072
534
root -24.9538 17.8603 3.79734 72.625 -79.6446 -66.1617
lowerback -2.96374 1.59973 7.1052
upperback -0.124283 1.8022 2.24631
thorax 1.68545 0.922801 -1.58023
lowerneck -17.5069 -2.49021 -5.9579
upperneck 5.85404 -2.43451 3.89502
head 4.68647 -1.09683 1.95564
rclavicle 1.01877e-014 2.48481e-014
rhumerus -33.1041 9.45535 -71.9693
rradius 98.2128
rwrist 13.6083
rhand -25.801 -30.3396
rfingers 7.12502
rthumb 0.737979 -60.3181
lclavicle 1.01877e-014 2.48481e-014
lhumerus -35.2114 -1.83852 92.6592
lradius 51.4101
lwrist -16.2171
lhand -12.865 17.9534
lfingers 7.12502
lthumb 13.2233 47.514
rfemur -2.8042 8.42361 35.8775
rtibia 17.2556
rfoot -14.212 -12.8044
rtoes 10.1385
lfemur -35.9112 3.01138 -6.19606
ltibia 41.5458
lfoot -7.7686 2.89935
ltoes -14.8786
535
root -25.114 17.8329 3.7804 72.1797 -79.5652 -65.6411
lowerback -3.01048 1.75756 7.12753
upperback -0.0741657 2.00823 2.14824
thorax 1.78434 1.03095 -1.68056
lowerneck -17.4302 -2.55853 -6.10726
upperneck 5.5982 -2.49029 3.85091
head 4.59814 -1.13135 1.96101
rclavicle -6.26172e-015 2.38542e-015
rhumerus -33.3248 9.95904 -74.793
rradius 95.9616
rwrist 13.9861
rhand -25.6445 -30.3244
rfingers 7.12502
rthumb 0.889105 -60.3023
lclavicle -6.26172e-015 2.38542e-015
lhumerus -35.0247 -2.12341 92.9689
lradius 51.6998
lwrist -16.2504
lhand -12.8823 17.9852
lfingers 7.12502
lthumb 13.2067 47.5469
rfemur -2.28309 8.31463 36.0987
rtibia 17.2428
rfoot -14.6538 -12.8672
rtoes 9.72194
lfemur -36.3983 2.8797 -6.16905
ltibia 39.9688
lfoot -7.79662 2.79711
ltoes -14.879
536
root -25.2748 17.8038 3.76434 71.7616 -79.4938 -65.1453
lowerback -3.05245 1.91902 7.14643
upperback -0.0252644 2.21976 2.05046
thorax 1.88052 1.14174 -1.77789
lowerneck -17.3534 -2.6321 -6.25709
upperneck 5.33724 -2.55449 3.81405
head 4.5089 -1.16924 1.96812
rclavicle -1.31695e-015 -6.16232e-015
rhumerus -33.4161 10.373 -77.4462
rradius 93.5779
rwrist 14.2699
rhand -25.4574 -30.293
rfingers 7.12502
rthumb 1.06977 -60.27
lclavicle -1.31695e-015 -6.16232e-015
lhumerus -34.8337 -2.41433 93.2825
lradius 51.9559
lwrist -16.293
lhand -12.909 18.0249
lfingers 7.12502
lthumb 13.1809 47.5882
rfemur -1.78874 8.19179 36.3035
rtibia 17.2789
rfoot -15.1036 -12.912
rtoes 9.26567
lfemur -36.8584 2.72326 -6.14263
ltibia 38.4275
lfoot -7.77799 2.67112
ltoes -14.8725
537
root -25.4364 17.7731 3.74921 71.3596 -79.4319 -64.6628
lowerback -3.0906 2.08347 7.15951
upperback 0.0231386 2.43597 1.95231
thorax 1.97508 1.2548 -1.87158
lowerneck -17.2831 -2.71124 -6.40746
upperneck 5.07522 -2.62727 3.7859
head 4.42107 -1.21049 1.97742
rclavicle 2.76311e-014 -3.4191e-014
rhumerus -33.3896 10.7147 -79.9279
rradius 91.0917
rwrist 14.4668
rhand -25.2421 -30.2431
rfingers 7.12502
rthumb 1.2777 -60.219
lclavicle 2.76311e-014 -3.4191e-014
lhumerus -34.6373 -2.7114 93.5995
lradius 52.1781
lwrist -16.3398
lhand -12.9476 18.0721
lfingers 7.12502
lthumb 13.1437 47.6378
rfemur -1.32042 8.05553 36.489
rtibia 17.3624
rfoot -15.5587 -12.94
rtoes 8.76923
lfemur -37.2939 2.53817 -6.11772
ltibia 36.9333
lfoot -7.72533 2.52344
ltoes -14.8864
538
root -25.5988 17.741 3.735 70.9701 -79.3818 -64.1906
lowerback -3.12352 2.25105 7.16466
upperback 0.0706248 2.65733 1.85279
thorax 2.06675 1.37031 -1.96154
lowerneck -17.2195 -2.79655 -6.5564
upperneck 4.81333 -2.70962 3.76555
head 4.33511 -1.25562 1.98821
rclavicle -2.23633e-014 2.14687e-014
rhumerus -33.2585 11.001 -82.2408
rradius 88.5283
rwrist 14.5865
rhand -25.0043 -30.1651
rfingers 7.12502
rthumb 1.50746 -60.1396
lclavicle -2.23633e-014 2.14687e-014
lhumerus -34.437 -3.01501 93.9184
lradius 52.368
lwrist -16.3854
lhand -13.0032 18.1195
lfingers 7.12502
lthumb 13.0901 47.6887
rfemur -0.877745 7.90817 36.6528
rtibia 17.4938
rfoot -16.0146 -12.953
rtoes 8.23057
lfemur -37.7066 2.32345 -6.09462
ltibia 35.4985
lfoot -7.63021 2.35242
ltoes -14.9593
539
root -25.7622 17.7078 3.72172 70.585 -79.3415 -63.7221
lowerback -3.15144 2.42086 7.16318
upperback 0.117811 2.88256 1.7522
thorax 2.1562 1.48765 -2.04825
lowerneck -17.1621 -2.88748 -6.70485
upperneck 4.55042 -2.8008 3.75561
head 4.25059 -1.30416 2.00153
rclavicle -4.91495e-014 -3.29983e-014
rhumerus -33.0353 11.2479 -84.3894
rradius 85.912
rwrist 14.6386
rhand -24.7483 -30.0569
rfingers 7.12502
rthumb 1.75464 -60.0294
lclavicle -4.91495e-014 -3.29983e-014
lhumerus -34.2339 -3.32346 94.2382
lradius 52.5286
lwrist -16.4199
lhand -13.0808 18.162
lfingers 7.12502
lthumb 13.0153 47.736
rfemur -0.45993 7.74687 36.7961
rtibia 17.6768
rfoot -16.4712 -12.9498
rtoes 7.64563
lfemur -38.096 2.07756 -6.07079
ltibia 34.1332
lfoot -7.49453 2.16803
ltoes -15.0444
540
root -25.9267 17.6737 3.70937 70.2002 -79.3105 -63.2544
lowerback -3.17255 2.59223 7.15527
upperback 0.163651 3.11093 1.65061
thorax 2.24121 1.60636 -2.13195
lowerneck -17.1084 -2.98409 -6.85402
upperneck 4.28641 -2.90084 3.7585
head 4.16721 -1.35606 2.01835
rclavicle 2.09718e-014 1.31198e-014
rhumerus -32.736 11.4722 -86.3811
rradius 83.2662
rwrist 14.6312
rhand -24.4815 -29.905
rfingers 7.12502
rthumb 2.01236 -59.8753
lclavicle 2.09718e-014 1.31198e-014
lhumerus -34.0313 -3.63495 94.5577
lradius 52.6635
lwrist -16.4325
lhand -13.165 18.2149
lfingers 7.12502
lthumb 12.9341 47.7941
rfemur -0.0665072 7.5722 36.919
rtibia 17.9114
rfoot -16.9223 -12.9309
rtoes 7.0074
lfemur -38.4644 1.80518 -6.04715
ltibia 32.8505
lfoot -7.32262 1.9752
ltoes -15.1209
541
root -26.0925 17.6389 3.69792 69.8201 -79.2857 -62.794
lowerback -3.1866 2.76491 7.14364
upperback 0.208765 3.34199 1.549
thorax 2.3223 1.72625 -2.2132
lowerneck -17.0571 -3.0863 -7.00193
upperneck 4.02115 -3.00996 3.77336
head 4.0847 -1.41148 2.03809
rclavicle -6.21202e-015 2.38542e-014
rhumerus -32.3763 11.6876 -88.2238
rradius 80.6168
rwrist 14.5692
rhand -24.2103 -29.7181
rfingers 7.12502
rthumb 2.27423 -59.6857
lclavicle -6.21202e-015 2.38542e-014
lhumerus -33.8311 -3.9482 94.8751
lradius 52.7767
lwrist -16.4209
lhand -13.2538 18.2744
lfingers 7.12502
lthumb 12.8485 47.8589
rfemur 0.304773 7.38459 37.0256
rtibia 18.1982
rfoot -17.364 -12.8942
rtoes 6.32462
lfemur -38.8114 1.51054 -6.02086
ltibia 31.662
lfoot -7.12612 1.77707
ltoes -15.1965
542
root -26.2595 17.6036 3.68738 69.4442 -79.2662 -62.3415
lowerback -3.18974 2.93788 7.12941
upperback 0.251487 3.57471 1.44732
thorax 2.39552 1.84666 -2.29305
lowerneck -17.0105 -3.1939 -7.14989
upperneck 3.75832 -3.12759 3.8032
head 4.00464 -1.47002 2.0619
rclavicle -3.49861e-014 5.20816e-014
rhumerus -31.9718 11.9093 -89.9277
rradius 77.985
rwrist 14.4593
rhand -23.9426 -29.4992
rfingers 7.12502
rthumb 2.53277 -59.4639
lclavicle -3.49861e-014 5.20816e-014
lhumerus -33.6352 -4.2581 95.1875
lradius 52.8677
lwrist -16.3913
lhand -13.3445 18.3285
lfingers 7.12502
lthumb 12.7611 47.9186
rfemur 0.65086 7.18273 37.1159
rtibia 18.5426
rfoot -17.7915 -12.8386
rtoes 5.58728
lfemur -39.139 1.1951 -5.99141
ltibia 30.5785
lfoot -6.91392 1.56684
ltoes -15.2513
543
root -26.4278 17.568 3.67781 69.0664 -79.2541 -61.8894
lowerback -3.18853 3.11063 7.1105
upperback 0.293416 3.80786 1.34475
thorax 2.46599 1.96714 -2.37098
lowerneck -16.9677 -3.30632 -7.29641
upperneck 3.49701 -3.25311 3.84706
head 3.9266 -1.53146 2.08932
rclavicle -8.34896e-015 -1.59028e-015
rhumerus -31.5343 12.1491 -91.5015
rradius 75.3919
rwrist 14.3065
rhand -23.679 -29.244
rfingers 7.12502
rthumb 2.78736 -59.2055
lclavicle -8.34896e-015 -1.59028e-015
lhumerus -33.4447 -4.56212 95.4926
lradius 52.9419
lwrist -16.3508
lhand -13.4245 18.3828
lfingers 7.12502
lthumb 12.684 47.9777
rfemur 0.969606 6.96492 37.1855
rtibia 18.9458
rfoot -18.1991 -12.7599
rtoes 4.7986
lfemur -39.4505 0.860956 -5.96353
ltibia 29.606
lfoot -6.68359 1.34101
ltoes -15.2679
544
root -26.5976 17.5323 3.6692 68.684 -79.2516 -61.4376
lowerback -3.17765 3.28209 7.08443
upperback 0.333335 4.04067 1.24115
thorax 2.52915 2.08713 -2.44623
lowerneck -16.9275 -3.42358 -7.44317
upperneck 3.23831 -3.38635 3.9075
head 3.85085 -1.59566 2.12142
rclavicle -4.62174e-015 1.19271e-015
rhumerus -31.0799 12.4198 -92.9542
rradius 72.8575
rwrist 14.1177
rhand -23.4273 -28.9605
rfingers 7.12502
rthumb 3.03049 -58.9187
lclavicle -4.62174e-015 1.19271e-015
lhumerus -33.2619 -4.85316 95.7882
lradius 52.9996
lwrist -16.3055
lhand -13.4998 18.4311
lfingers 7.12502
lthumb 12.6114 48.0304
rfemur 1.26108 6.73549 37.2324
rtibia 19.4118
rfoot -18.5819 -12.6598
rtoes 3.96348
lfemur -39.7428 0.508698 -5.93955
ltibia 28.7468
lfoot -6.43828 1.10605
ltoes -15.2428
